<mxfile host="app.diagrams.net" modified="2021-11-02T10:11:58.066Z" agent="5.0 (Windows NT 10.0; Win64; x64) AppleWebKit/537.36 (KHTML, like Gecko) Chrome/95.0.4638.54 Safari/537.36" etag="Cf7GTSmXgFtatLv6nUSr" version="15.6.5" type="github">
  <diagram id="G2chzlTLqcyCp36_tDNL" name="Page-1">
    <mxGraphModel dx="1221" dy="1813" grid="1" gridSize="10" guides="1" tooltips="1" connect="1" arrows="1" fold="1" page="1" pageScale="1" pageWidth="827" pageHeight="1169" math="0" shadow="0">
      <root>
        <mxCell id="0" />
        <mxCell id="1" parent="0" />
        <mxCell id="souYiVQS3MuT5vgsJ6Q9-1" value="Hotel Use Case Diagram" style="shape=umlFrame;whiteSpace=wrap;html=1;fillColor=default;strokeColor=default;fontColor=default;width=150;height=20;" vertex="1" parent="1">
          <mxGeometry x="80" y="-390" width="600" height="770" as="geometry" />
        </mxCell>
        <mxCell id="souYiVQS3MuT5vgsJ6Q9-8" style="rounded=0;orthogonalLoop=1;jettySize=auto;html=1;exitX=0.5;exitY=0.5;exitDx=0;exitDy=0;exitPerimeter=0;entryX=0;entryY=0.5;entryDx=0;entryDy=0;fontColor=default;strokeColor=default;labelBackgroundColor=default;endArrow=none;endFill=0;" edge="1" parent="1" source="souYiVQS3MuT5vgsJ6Q9-2" target="souYiVQS3MuT5vgsJ6Q9-4">
          <mxGeometry relative="1" as="geometry" />
        </mxCell>
        <mxCell id="souYiVQS3MuT5vgsJ6Q9-20" style="edgeStyle=none;rounded=0;orthogonalLoop=1;jettySize=auto;html=1;exitX=0.5;exitY=0.5;exitDx=0;exitDy=0;exitPerimeter=0;entryX=0;entryY=0.5;entryDx=0;entryDy=0;labelBackgroundColor=default;fontColor=default;startArrow=none;startFill=0;endArrow=none;endFill=0;strokeColor=default;" edge="1" parent="1" source="souYiVQS3MuT5vgsJ6Q9-2" target="souYiVQS3MuT5vgsJ6Q9-11">
          <mxGeometry relative="1" as="geometry" />
        </mxCell>
        <mxCell id="souYiVQS3MuT5vgsJ6Q9-36" style="edgeStyle=none;rounded=0;orthogonalLoop=1;jettySize=auto;html=1;exitX=1;exitY=1;exitDx=0;exitDy=0;exitPerimeter=0;entryX=0;entryY=0.5;entryDx=0;entryDy=0;labelBackgroundColor=default;fontColor=default;startArrow=none;startFill=0;endArrow=none;endFill=0;strokeColor=default;" edge="1" parent="1" source="souYiVQS3MuT5vgsJ6Q9-2" target="souYiVQS3MuT5vgsJ6Q9-33">
          <mxGeometry relative="1" as="geometry" />
        </mxCell>
        <mxCell id="souYiVQS3MuT5vgsJ6Q9-2" value="Customer" style="shape=umlActor;verticalLabelPosition=bottom;verticalAlign=top;html=1;fontColor=default;strokeColor=default;fillColor=default;" vertex="1" parent="1">
          <mxGeometry x="20" y="-60" width="30" height="60" as="geometry" />
        </mxCell>
        <mxCell id="souYiVQS3MuT5vgsJ6Q9-9" style="edgeStyle=none;rounded=0;orthogonalLoop=1;jettySize=auto;html=1;exitX=0.5;exitY=0.5;exitDx=0;exitDy=0;exitPerimeter=0;entryX=1;entryY=0.5;entryDx=0;entryDy=0;labelBackgroundColor=default;fontColor=default;endArrow=none;endFill=0;strokeColor=default;" edge="1" parent="1" source="souYiVQS3MuT5vgsJ6Q9-3" target="souYiVQS3MuT5vgsJ6Q9-4">
          <mxGeometry relative="1" as="geometry" />
        </mxCell>
        <mxCell id="souYiVQS3MuT5vgsJ6Q9-35" style="edgeStyle=none;rounded=0;orthogonalLoop=1;jettySize=auto;html=1;exitX=0;exitY=1;exitDx=0;exitDy=0;exitPerimeter=0;entryX=1;entryY=0.5;entryDx=0;entryDy=0;labelBackgroundColor=default;fontColor=default;startArrow=none;startFill=0;endArrow=none;endFill=0;strokeColor=default;" edge="1" parent="1" source="souYiVQS3MuT5vgsJ6Q9-3" target="souYiVQS3MuT5vgsJ6Q9-33">
          <mxGeometry relative="1" as="geometry" />
        </mxCell>
        <mxCell id="souYiVQS3MuT5vgsJ6Q9-3" value="Hotel" style="shape=umlActor;verticalLabelPosition=bottom;verticalAlign=top;html=1;fontColor=default;strokeColor=default;fillColor=default;" vertex="1" parent="1">
          <mxGeometry x="700" y="-80" width="30" height="60" as="geometry" />
        </mxCell>
        <mxCell id="souYiVQS3MuT5vgsJ6Q9-19" value="Includes" style="edgeStyle=none;rounded=0;orthogonalLoop=1;jettySize=auto;html=1;exitX=0.5;exitY=1;exitDx=0;exitDy=0;labelBackgroundColor=default;fontColor=default;startArrow=none;startFill=0;endArrow=classic;endFill=1;strokeColor=default;" edge="1" parent="1" source="souYiVQS3MuT5vgsJ6Q9-4" target="souYiVQS3MuT5vgsJ6Q9-10">
          <mxGeometry relative="1" as="geometry" />
        </mxCell>
        <mxCell id="souYiVQS3MuT5vgsJ6Q9-4" value="Make Reservation" style="ellipse;whiteSpace=wrap;html=1;fontColor=default;strokeColor=default;fillColor=default;" vertex="1" parent="1">
          <mxGeometry x="290" y="-360" width="140" height="40" as="geometry" />
        </mxCell>
        <mxCell id="souYiVQS3MuT5vgsJ6Q9-10" value="Assign Room" style="ellipse;whiteSpace=wrap;html=1;fontColor=default;strokeColor=default;fillColor=default;" vertex="1" parent="1">
          <mxGeometry x="343" y="-280" width="140" height="40" as="geometry" />
        </mxCell>
        <mxCell id="souYiVQS3MuT5vgsJ6Q9-21" style="edgeStyle=none;rounded=0;orthogonalLoop=1;jettySize=auto;html=1;exitX=1;exitY=0.5;exitDx=0;exitDy=0;entryX=0.5;entryY=0.5;entryDx=0;entryDy=0;entryPerimeter=0;labelBackgroundColor=default;fontColor=default;startArrow=none;startFill=0;endArrow=none;endFill=0;strokeColor=default;" edge="1" parent="1" source="souYiVQS3MuT5vgsJ6Q9-11" target="souYiVQS3MuT5vgsJ6Q9-3">
          <mxGeometry relative="1" as="geometry" />
        </mxCell>
        <mxCell id="souYiVQS3MuT5vgsJ6Q9-23" value="Includes" style="edgeStyle=none;rounded=0;orthogonalLoop=1;jettySize=auto;html=1;exitX=0.5;exitY=1;exitDx=0;exitDy=0;entryX=0.5;entryY=0;entryDx=0;entryDy=0;labelBackgroundColor=default;fontColor=default;startArrow=none;startFill=0;endArrow=classic;endFill=1;strokeColor=default;" edge="1" parent="1" source="souYiVQS3MuT5vgsJ6Q9-11" target="souYiVQS3MuT5vgsJ6Q9-13">
          <mxGeometry relative="1" as="geometry" />
        </mxCell>
        <mxCell id="souYiVQS3MuT5vgsJ6Q9-11" value="Sign Out of Room" style="ellipse;whiteSpace=wrap;html=1;fontColor=default;strokeColor=default;fillColor=default;" vertex="1" parent="1">
          <mxGeometry x="310" y="-150" width="140" height="40" as="geometry" />
        </mxCell>
        <mxCell id="souYiVQS3MuT5vgsJ6Q9-18" value="Extends" style="edgeStyle=none;rounded=0;orthogonalLoop=1;jettySize=auto;html=1;exitX=1;exitY=0;exitDx=0;exitDy=0;entryX=0;entryY=1;entryDx=0;entryDy=0;labelBackgroundColor=default;fontColor=default;startArrow=none;startFill=0;endArrow=classic;endFill=1;strokeColor=default;" edge="1" parent="1" source="souYiVQS3MuT5vgsJ6Q9-12" target="souYiVQS3MuT5vgsJ6Q9-10">
          <mxGeometry relative="1" as="geometry" />
        </mxCell>
        <mxCell id="souYiVQS3MuT5vgsJ6Q9-12" value="Room Services" style="ellipse;whiteSpace=wrap;html=1;fontColor=default;strokeColor=default;fillColor=default;" vertex="1" parent="1">
          <mxGeometry x="210" y="-210" width="140" height="40" as="geometry" />
        </mxCell>
        <mxCell id="souYiVQS3MuT5vgsJ6Q9-28" value="Includes" style="edgeStyle=none;rounded=0;orthogonalLoop=1;jettySize=auto;html=1;exitX=0;exitY=1;exitDx=0;exitDy=0;labelBackgroundColor=default;fontColor=default;startArrow=none;startFill=0;endArrow=classic;endFill=1;strokeColor=default;" edge="1" parent="1" source="souYiVQS3MuT5vgsJ6Q9-13" target="souYiVQS3MuT5vgsJ6Q9-24">
          <mxGeometry relative="1" as="geometry" />
        </mxCell>
        <mxCell id="souYiVQS3MuT5vgsJ6Q9-13" value="Calculate Cost of Stay" style="ellipse;whiteSpace=wrap;html=1;fontColor=default;strokeColor=default;fillColor=default;" vertex="1" parent="1">
          <mxGeometry x="310" y="-50" width="140" height="40" as="geometry" />
        </mxCell>
        <mxCell id="souYiVQS3MuT5vgsJ6Q9-24" value="Cost of Duration" style="ellipse;whiteSpace=wrap;html=1;fontColor=default;strokeColor=default;fillColor=default;" vertex="1" parent="1">
          <mxGeometry x="120" y="-10" width="140" height="40" as="geometry" />
        </mxCell>
        <mxCell id="souYiVQS3MuT5vgsJ6Q9-30" value="Extends" style="edgeStyle=none;rounded=0;orthogonalLoop=1;jettySize=auto;html=1;exitX=1;exitY=0;exitDx=0;exitDy=0;labelBackgroundColor=default;fontColor=default;startArrow=none;startFill=0;endArrow=classic;endFill=1;strokeColor=default;" edge="1" parent="1" source="souYiVQS3MuT5vgsJ6Q9-25" target="souYiVQS3MuT5vgsJ6Q9-13">
          <mxGeometry relative="1" as="geometry" />
        </mxCell>
        <mxCell id="souYiVQS3MuT5vgsJ6Q9-25" value="Cost of Services" style="ellipse;whiteSpace=wrap;html=1;fontColor=default;strokeColor=default;fillColor=default;" vertex="1" parent="1">
          <mxGeometry x="190" y="40" width="140" height="40" as="geometry" />
        </mxCell>
        <mxCell id="souYiVQS3MuT5vgsJ6Q9-31" value="Extends" style="edgeStyle=none;rounded=0;orthogonalLoop=1;jettySize=auto;html=1;exitX=0;exitY=0;exitDx=0;exitDy=0;labelBackgroundColor=default;fontColor=default;startArrow=none;startFill=0;endArrow=classic;endFill=1;strokeColor=default;" edge="1" parent="1" source="souYiVQS3MuT5vgsJ6Q9-26" target="souYiVQS3MuT5vgsJ6Q9-13">
          <mxGeometry relative="1" as="geometry" />
        </mxCell>
        <mxCell id="souYiVQS3MuT5vgsJ6Q9-26" value="Cost of Damaged Items" style="ellipse;whiteSpace=wrap;html=1;fontColor=default;strokeColor=default;fillColor=default;" vertex="1" parent="1">
          <mxGeometry x="450" y="30" width="140" height="40" as="geometry" />
        </mxCell>
        <mxCell id="souYiVQS3MuT5vgsJ6Q9-32" value="Extends" style="edgeStyle=none;rounded=0;orthogonalLoop=1;jettySize=auto;html=1;exitX=0;exitY=0.5;exitDx=0;exitDy=0;entryX=1;entryY=0.5;entryDx=0;entryDy=0;labelBackgroundColor=default;fontColor=default;startArrow=none;startFill=0;endArrow=classic;endFill=1;strokeColor=default;" edge="1" parent="1" source="souYiVQS3MuT5vgsJ6Q9-27" target="souYiVQS3MuT5vgsJ6Q9-13">
          <mxGeometry relative="1" as="geometry" />
        </mxCell>
        <mxCell id="souYiVQS3MuT5vgsJ6Q9-27" value="Cost of Over-staying" style="ellipse;whiteSpace=wrap;html=1;fontColor=default;strokeColor=default;fillColor=default;" vertex="1" parent="1">
          <mxGeometry x="510" y="-20" width="140" height="40" as="geometry" />
        </mxCell>
        <mxCell id="souYiVQS3MuT5vgsJ6Q9-33" value="Bill Customer" style="ellipse;whiteSpace=wrap;html=1;fontColor=default;strokeColor=default;fillColor=default;" vertex="1" parent="1">
          <mxGeometry x="310" y="170" width="140" height="40" as="geometry" />
        </mxCell>
        <mxCell id="souYiVQS3MuT5vgsJ6Q9-39" value="Extends" style="edgeStyle=none;rounded=0;orthogonalLoop=1;jettySize=auto;html=1;exitX=0.5;exitY=0;exitDx=0;exitDy=0;labelBackgroundColor=default;fontColor=default;startArrow=none;startFill=0;endArrow=classic;endFill=1;strokeColor=default;" edge="1" parent="1" source="souYiVQS3MuT5vgsJ6Q9-37" target="souYiVQS3MuT5vgsJ6Q9-33">
          <mxGeometry relative="1" as="geometry" />
        </mxCell>
        <mxCell id="souYiVQS3MuT5vgsJ6Q9-37" value="Pay with Points" style="ellipse;whiteSpace=wrap;html=1;fontColor=default;strokeColor=default;fillColor=default;" vertex="1" parent="1">
          <mxGeometry x="220" y="240" width="140" height="40" as="geometry" />
        </mxCell>
        <mxCell id="souYiVQS3MuT5vgsJ6Q9-40" value="Extends" style="edgeStyle=none;rounded=0;orthogonalLoop=1;jettySize=auto;html=1;exitX=0.5;exitY=0;exitDx=0;exitDy=0;labelBackgroundColor=default;fontColor=default;startArrow=none;startFill=0;endArrow=classic;endFill=1;strokeColor=default;" edge="1" parent="1" source="souYiVQS3MuT5vgsJ6Q9-38" target="souYiVQS3MuT5vgsJ6Q9-33">
          <mxGeometry relative="1" as="geometry" />
        </mxCell>
        <mxCell id="souYiVQS3MuT5vgsJ6Q9-38" value="Pay with Currency" style="ellipse;whiteSpace=wrap;html=1;fontColor=default;strokeColor=default;fillColor=default;" vertex="1" parent="1">
          <mxGeometry x="413" y="240" width="140" height="40" as="geometry" />
        </mxCell>
      </root>
    </mxGraphModel>
  </diagram>
</mxfile>
